<?xml version="1.0" encoding="UTF-8"?>
<svg xmlns="http://www.w3.org/2000/svg"
     xmlns:xlink="http://www.w3.org/1999/xlink"
     xmlns:gadfly="http://www.gadflyjl.org/ns"
     version="1.2"
     width="152.4mm" height="76.2mm" viewBox="0 0 152.4 76.2"
     stroke="none"
     fill="#000000"
     stroke-width="0.3"
     font-size="3.88"
>
<g class="plotroot xscalable yscalable" id="img-3bb77d3a-1">
  <g font-size="3.88" font-family="'PT Sans','Helvetica Neue','Helvetica',sans-serif" fill="#564A55" stroke="#000000" stroke-opacity="0.000" id="img-3bb77d3a-2">
    <text x="79.15" y="64.59" text-anchor="middle" dy="0.6em">x</text>
  </g>
  <g class="guide xlabels" font-size="2.82" font-family="'PT Sans Caption','Helvetica Neue','Helvetica',sans-serif" fill="#6C606B" id="img-3bb77d3a-3">
    <text x="21.74" y="57.91" text-anchor="middle" dy="0.6em">0</text>
    <text x="44.71" y="57.91" text-anchor="middle" dy="0.6em">5</text>
    <text x="67.67" y="57.91" text-anchor="middle" dy="0.6em">10</text>
    <text x="90.64" y="57.91" text-anchor="middle" dy="0.6em">15</text>
    <text x="113.6" y="57.91" text-anchor="middle" dy="0.6em">20</text>
    <text x="136.56" y="57.91" text-anchor="middle" dy="0.6em">25</text>
  </g>
  <g class="guide colorkey" id="img-3bb77d3a-4">
    <g fill="#4C404B" font-size="2.82" font-family="'PT Sans','Helvetica Neue','Helvetica',sans-serif" id="img-3bb77d3a-5">
      <text x="143.03" y="30.96" dy="0.35em" id="img-3bb77d3a-6" class="color_f1">f<tspan style="dominant-baseline:inherit" dy="0.6em" font-size="83%">1</tspan><tspan dy="-0.498000em"></tspan></text>
      <text x="143.03" y="35.9" dy="0.35em" id="img-3bb77d3a-7" class="color_f2">f<tspan style="dominant-baseline:inherit" dy="0.6em" font-size="83%">2</tspan><tspan dy="-0.498000em"></tspan></text>
    </g>
    <g stroke="#000000" stroke-opacity="0.000" id="img-3bb77d3a-8">
      <rect x="139.56" y="29.72" width="2.47" height="2.47" id="img-3bb77d3a-9" fill="#00BFFF" class="color_f1"/>
      <rect x="139.56" y="34.66" width="2.47" height="2.47" id="img-3bb77d3a-10" fill="#D4CA3A" class="color_f2"/>
    </g>
    <g fill="#362A35" font-size="3.88" font-family="'PT Sans','Helvetica Neue','Helvetica',sans-serif" stroke="#000000" stroke-opacity="0.000" id="img-3bb77d3a-11">
      <text x="139.56" y="25.82" id="img-3bb77d3a-12">Color</text>
    </g>
  </g>
<g clip-path="url(#img-3bb77d3a-13)">
  <g id="img-3bb77d3a-14">
    <g pointer-events="visible" opacity="1" fill="#000000" fill-opacity="0.000" stroke="#000000" stroke-opacity="0.000" class="guide background" id="img-3bb77d3a-15">
      <rect x="19.74" y="5" width="118.82" height="51.91" id="img-3bb77d3a-16"/>
    </g>
    <g class="guide ygridlines xfixed" stroke-dasharray="0.5,0.5" stroke-width="0.2" stroke="#D0D0E0" id="img-3bb77d3a-17">
      <path fill="none" d="M19.74,54.91 L 138.56 54.91" id="img-3bb77d3a-18"/>
      <path fill="none" d="M19.74,42.94 L 138.56 42.94" id="img-3bb77d3a-19"/>
      <path fill="none" d="M19.74,30.96 L 138.56 30.96" id="img-3bb77d3a-20"/>
      <path fill="none" d="M19.74,18.98 L 138.56 18.98" id="img-3bb77d3a-21"/>
      <path fill="none" d="M19.74,7 L 138.56 7" id="img-3bb77d3a-22"/>
    </g>
    <g class="guide xgridlines yfixed" stroke-dasharray="0.5,0.5" stroke-width="0.2" stroke="#D0D0E0" id="img-3bb77d3a-23">
      <path fill="none" d="M21.74,5 L 21.74 56.91" id="img-3bb77d3a-24"/>
      <path fill="none" d="M44.71,5 L 44.71 56.91" id="img-3bb77d3a-25"/>
      <path fill="none" d="M67.67,5 L 67.67 56.91" id="img-3bb77d3a-26"/>
      <path fill="none" d="M90.64,5 L 90.64 56.91" id="img-3bb77d3a-27"/>
      <path fill="none" d="M113.6,5 L 113.6 56.91" id="img-3bb77d3a-28"/>
      <path fill="none" d="M136.56,5 L 136.56 56.91" id="img-3bb77d3a-29"/>
    </g>
    <g class="plotpanel" id="img-3bb77d3a-30">
      <g stroke-width="0.3" fill="#000000" fill-opacity="0.000" stroke-dasharray="none" id="img-3bb77d3a-31">
        <path fill="none" d="M21.74,30.96 L 22.21 28.56 22.67 26.18 23.13 23.85 23.59 21.59 24.05 19.43 24.51 17.38 24.97 15.47 25.43 13.72 25.9 12.14 26.36 10.75 26.82 9.56 27.28 8.59 27.74 7.84 28.2 7.33 28.66 7.05 29.12 7.02 29.58 7.22 30.05 7.67 30.51 8.35 30.97 9.25 31.43 10.38 31.89 11.71 32.35 13.24 32.81 14.95 33.27 16.81 33.73 18.82 34.2 20.95 34.66 23.19 35.12 25.5 35.58 27.86 36.04 30.26 36.5 32.66 36.96 35.05 37.42 37.4 37.88 39.68 38.35 41.87 38.81 43.95 39.27 45.9 39.73 47.71 40.19 49.34 40.65 50.79 41.11 52.03 41.57 53.07 42.03 53.88 42.5 54.46 42.96 54.81 43.42 54.91 43.88 54.78 44.34 54.4 44.8 53.79 45.26 52.95 45.72 51.88 46.18 50.61 46.65 49.14 47.11 47.48 47.57 45.66 48.03 43.69 48.49 41.59 48.95 39.39 49.41 37.1 49.87 34.74 50.33 32.35 50.8 29.95 51.26 27.55 51.72 25.19 52.18 22.89 52.64 20.67 53.1 18.56 53.56 16.56 54.02 14.72 54.48 13.03 54.95 11.53 55.41 10.22 55.87 9.12 56.33 8.25 56.79 7.6 57.25 7.18 57.71 7.01 58.17 7.07 58.63 7.38 59.1 7.92 59.56 8.7 60.02 9.7 60.48 10.91 60.94 12.33 61.4 13.94 61.86 15.71 62.32 17.64 62.78 19.7 63.25 21.88 63.71 24.15 64.17 26.48 64.63 28.87 65.09 31.27 65.55 33.67 66.01 36.04 66.47 38.36 66.93 40.61 67.4 42.76 67.86 44.79 68.32 46.68 68.78 48.41 69.24 49.97 69.7 51.33 70.16 52.49 70.62 53.44 71.08 54.15 71.55 54.64 72.01 54.88 72.47 54.89 72.93 54.65 73.39 54.17 73.85 53.46 74.31 52.53 74.77 51.37 75.23 50.01 75.7 48.46 76.16 46.74 76.62 44.85 77.08 42.82 77.54 40.68 78 38.43 78.46 36.11 78.92 33.74 79.38 31.34 79.85 28.94 80.31 26.56 80.77 24.22 81.23 21.95 81.69 19.77 82.15 17.7 82.61 15.77 83.07 13.99 83.53 12.38 84 10.96 84.46 9.74 84.92 8.73 85.38 7.94 85.84 7.39 86.3 7.08 86.76 7 87.22 7.17 87.68 7.58 88.15 8.22 88.61 9.09 89.07 10.18 89.53 11.49 89.99 12.98 90.45 14.66 90.91 16.5 91.37 18.49 91.83 20.6 92.3 22.82 92.76 25.12 93.22 27.48 93.68 29.87 94.14 32.28 94.6 34.67 95.06 37.02 95.52 39.31 95.98 41.52 96.45 43.62 96.91 45.6 97.37 47.43 97.83 49.09 98.29 50.57 98.75 51.85 99.21 52.92 99.67 53.77 100.14 54.39 100.6 54.77 101.06 54.91 101.52 54.82 101.98 54.48 102.44 53.9 102.9 53.1 103.36 52.07 103.82 50.83 104.29 49.39 104.75 47.76 105.21 45.96 105.67 44.02 106.13 41.94 106.59 39.75 107.05 37.47 107.51 35.13 107.97 32.74 108.44 30.34 108.9 27.94 109.36 25.57 109.82 23.26 110.28 21.02 110.74 18.89 111.2 16.87 111.66 15 112.12 13.29 112.59 11.76 113.05 10.42 113.51 9.29 113.97 8.37 114.43 7.68 114.89 7.23 115.35 7.02 115.81 7.05 116.27 7.31 116.74 7.82 117.2 8.56 117.66 9.52 118.12 10.71 118.58 12.09 119.04 13.66 119.5 15.41 119.96 17.32 120.42 19.36 120.89 21.52 121.35 23.78 121.81 26.1 122.27 28.48 122.73 30.88 123.19 33.28 123.65 35.66 124.11 37.99 124.57 40.25 125.04 42.42 125.5 44.47 125.96 46.38 126.42 48.14 126.88 49.73 127.34 51.13 127.8 52.32 128.26 53.3 128.72 54.05 129.19 54.58 129.65 54.86 130.11 54.9 130.57 54.7 131.03 54.27 131.49 53.59 131.95 52.69 132.41 51.57 132.87 50.25 133.34 48.73 133.8 47.03 134.26 45.16 134.72 43.16 135.18 41.03 135.64 38.8 136.1 36.49 136.56 34.13" id="img-3bb77d3a-32" stroke="#00BFFF" class="geometry color_f1"/>
        <path fill="none" d="M21.74,7 L 22.21 7.12 22.67 7.48 23.13 8.08 23.59 8.91 24.05 9.96 24.51 11.22 24.97 12.68 25.43 14.32 25.9 16.13 26.36 18.09 26.82 20.18 27.28 22.38 27.74 24.67 28.2 27.02 28.66 29.41 29.12 31.81 29.58 34.21 30.05 36.57 30.51 38.88 30.97 41.1 31.43 43.23 31.89 45.23 32.35 47.08 32.81 48.78 33.27 50.29 33.73 51.61 34.2 52.73 34.66 53.62 35.12 54.28 35.58 54.71 36.04 54.9 36.5 54.85 36.96 54.56 37.42 54.03 37.88 53.27 38.35 52.29 38.81 51.09 39.27 49.68 39.73 48.09 40.19 46.32 40.65 44.4 41.11 42.35 41.57 40.18 42.03 37.92 42.5 35.58 42.96 33.2 43.42 30.8 43.88 28.4 44.34 26.03 44.8 23.7 45.26 21.45 45.72 19.29 46.18 17.25 46.65 15.35 47.11 13.61 47.57 12.04 48.03 10.66 48.49 9.49 48.95 8.53 49.41 7.8 49.87 7.3 50.33 7.04 50.8 7.02 51.26 7.24 51.72 7.7 52.18 8.4 52.64 9.32 53.1 10.46 53.56 11.81 54.02 13.35 54.48 15.06 54.95 16.94 55.41 18.96 55.87 21.1 56.33 23.33 56.79 25.65 57.25 28.02 57.71 30.41 58.17 32.82 58.63 35.2 59.1 37.54 59.56 39.82 60.02 42.01 60.48 44.08 60.94 46.02 61.4 47.82 61.86 49.44 62.32 50.87 62.78 52.11 63.25 53.13 63.71 53.93 64.17 54.49 64.63 54.82 65.09 54.91 65.55 54.76 66.01 54.37 66.47 53.74 66.93 52.89 67.4 51.81 67.86 50.52 68.32 49.04 68.78 47.37 69.24 45.54 69.7 43.56 70.16 41.45 70.62 39.24 71.08 36.95 71.55 34.59 72.01 32.2 72.47 29.79 72.93 27.4 73.39 25.04 73.85 22.75 74.31 20.53 74.77 18.42 75.23 16.44 75.7 14.6 76.16 12.93 76.62 11.44 77.08 10.15 77.54 9.06 78 8.2 78.46 7.56 78.92 7.16 79.38 7 79.85 7.08 80.31 7.41 80.77 7.97 81.23 8.76 81.69 9.77 82.15 11 82.61 12.43 83.07 14.04 83.53 15.83 84 17.77 84.46 19.84 84.92 22.02 85.38 24.3 85.84 26.64 86.3 29.02 86.76 31.42 87.22 33.82 87.68 36.19 88.15 38.51 88.61 40.75 89.07 42.89 89.53 44.91 89.99 46.8 90.45 48.52 90.91 50.06 91.37 51.42 91.83 52.56 92.3 53.49 92.76 54.19 93.22 54.66 93.68 54.89 94.14 54.88 94.6 54.63 95.06 54.13 95.52 53.41 95.98 52.46 96.45 51.29 96.91 49.92 97.37 48.36 97.83 46.62 98.29 44.72 98.75 42.69 99.21 40.54 99.67 38.29 100.14 35.96 100.6 33.59 101.06 31.19 101.52 28.79 101.98 26.41 102.44 24.07 102.9 21.81 103.36 19.63 103.82 17.57 104.29 15.65 104.75 13.88 105.21 12.28 105.67 10.87 106.13 9.66 106.59 8.67 107.05 7.9 107.51 7.37 107.97 7.07 108.44 7.01 108.9 7.19 109.36 7.61 109.82 8.27 110.28 9.16 110.74 10.26 111.2 11.58 111.66 13.09 112.12 14.77 112.59 16.63 113.05 18.62 113.51 20.74 113.97 22.97 114.43 25.27 114.89 27.63 115.35 30.03 115.81 32.43 116.27 34.82 116.74 37.17 117.2 39.46 117.66 41.66 118.12 43.76 118.58 45.72 119.04 47.54 119.5 49.19 119.96 50.65 120.42 51.92 120.89 52.98 121.35 53.81 121.81 54.42 122.27 54.79 122.73 54.91 123.19 54.8 123.65 54.45 124.11 53.86 124.57 53.04 125.04 52 125.5 50.74 125.96 49.29 126.42 47.65 126.88 45.84 127.34 43.89 127.8 41.8 128.26 39.6 128.72 37.32 129.19 34.97 129.65 32.58 130.11 30.18 130.57 27.78 131.03 25.42 131.49 23.11 131.95 20.88 132.41 18.75 132.87 16.75 133.34 14.89 133.8 13.19 134.26 11.67 134.72 10.34 135.18 9.22 135.64 8.32 136.1 7.65 136.56 7.21" id="img-3bb77d3a-33" stroke="#D4CA3A" class="geometry color_f2"/>
      </g>
    </g>
  </g>
</g>
  <g class="guide ylabels" font-size="2.82" font-family="'PT Sans Caption','Helvetica Neue','Helvetica',sans-serif" fill="#6C606B" id="img-3bb77d3a-34">
    <text x="18.74" y="54.91" text-anchor="end" dy="0.35em" id="img-3bb77d3a-35">-1.0</text>
    <text x="18.74" y="42.94" text-anchor="end" dy="0.35em" id="img-3bb77d3a-36">-0.5</text>
    <text x="18.74" y="30.96" text-anchor="end" dy="0.35em" id="img-3bb77d3a-37">0.0</text>
    <text x="18.74" y="18.98" text-anchor="end" dy="0.35em" id="img-3bb77d3a-38">0.5</text>
    <text x="18.74" y="7" text-anchor="end" dy="0.35em" id="img-3bb77d3a-39">1.0</text>
  </g>
  <g font-size="3.88" font-family="'PT Sans','Helvetica Neue','Helvetica',sans-serif" fill="#564A55" stroke="#000000" stroke-opacity="0.000" id="img-3bb77d3a-40">
    <text x="8.81" y="28.96" text-anchor="middle" dy="0.35em" transform="rotate(-90, 8.81, 30.96)" id="img-3bb77d3a-41">f(x)</text>
  </g>
</g>
<defs>
  <clipPath id="img-3bb77d3a-13">
  <path d="M19.74,5 L 138.56 5 138.56 56.91 19.74 56.91" />
</clipPath>
</defs>
</svg>
